<?xml version="1.0" encoding="UTF-8" standalone="no"?>
<svg
   viewBox="0 0 50 50"
   width="50px"
   height="50px"
   version="1.1"
   id="svg174"
   sodipodi:docname="instagram.svg"
   inkscape:version="1.2.2 (b0a84865, 2022-12-01)"
   xmlns:inkscape="http://www.inkscape.org/namespaces/inkscape"
   xmlns:sodipodi="http://sodipodi.sourceforge.net/DTD/sodipodi-0.dtd"
   xmlns="http://www.w3.org/2000/svg"
   xmlns:svg="http://www.w3.org/2000/svg">
  <defs
     id="defs178" />
  <sodipodi:namedview
     id="namedview176"
     pagecolor="#ffffff"
     bordercolor="#cccccc"
     borderopacity="1"
     inkscape:showpageshadow="0"
     inkscape:pageopacity="1"
     inkscape:pagecheckerboard="0"
     inkscape:deskcolor="#d1d1d1"
     showgrid="false"
     inkscape:zoom="10.84"
     inkscape:cx="11.346863"
     inkscape:cy="25"
     inkscape:window-width="1440"
     inkscape:window-height="762"
     inkscape:window-x="0"
     inkscape:window-y="25"
     inkscape:window-maximized="1"
     inkscape:current-layer="svg174" />
  <path
     d="M 14.772727,0 C 6.625,0 0,6.625 0,14.772727 V 35.227273 C 0,43.375 6.625,50 14.772727,50 H 35.227273 C 43.375,50 50,43.375 50,35.227273 V 14.772727 C 50,6.625 43.375,0 35.227273,0 Z m 23.863637,9.0909091 c 1.25,0 2.272727,1.0227269 2.272727,2.2727269 0,1.25 -1.022727,2.272728 -2.272727,2.272728 -1.25,0 -2.272728,-1.022728 -2.272728,-2.272728 0,-1.25 1.022728,-2.2727269 2.272728,-2.2727269 z M 25,12.5 c 6.897727,0 12.5,5.602273 12.5,12.5 0,6.897727 -5.602273,12.5 -12.5,12.5 -6.897727,0 -12.5,-5.602273 -12.5,-12.5 0,-6.897727 5.602273,-12.5 12.5,-12.5 z m 0,2.272727 c -5.636364,0 -10.227273,4.590909 -10.227273,10.227273 0,5.636364 4.590909,10.227273 10.227273,10.227273 5.636364,0 10.227273,-4.590909 10.227273,-10.227273 0,-5.636364 -4.590909,-10.227273 -10.227273,-10.227273 z"
     fill="#db3536"
     id="path172"
     style="stroke-width:1.13636" />
</svg>
